PathFileType	4	(X/Y/Z)	C:\Users\Graham\Documents\MATLAB\MOtoNMS_v2_2\MyData\ElaboratedData\S9\22-05-17\staticElaborations\Static1\Static1\\Static1.trc
DataRate	CameraRate	NumFrames	NumMarkers	Units	OrigDataRate	DataStartFrame
100	100	4	38	mm	100	2
Frame#	Time	V_Sacral			R_ASIS			L_ASIS			R_Knee_Lat			R_Knee_Med			R_Thigh_Upper			R_Thigh_Front			R_Thigh_Rear			L_Knee_Lat			L_Knee_Med			L_Thigh_Upper			L_Thigh_Front			L_Thigh_Rear			R_Ankle_Lat			R_Ankle_Med			R_Shank_Upper			R_Shank_Front			R_Shank_Rear			L_Ankle_Lat			L_Ankle_Med			L_Shank_Upper			L_Shank_Front			L_Shank_Rear			R_Heel			R_MTP1			R_MTP5			L_Heel			L_MTP1			L_MTP5			Clavicle			R_Acromium			L_Acromium			LAJC			RAJC			LHJC			RHJC			LKJC			RKJC		
		X1	Y1	Z1	X2	Y2	Z2	X3	Y3	Z3	X4	Y4	Z4	X5	Y5	Z5	X6	Y6	Z6	X7	Y7	Z7	X8	Y8	Z8	X9	Y9	Z9	X10	Y10	Z10	X11	Y11	Z11	X12	Y12	Z12	X13	Y13	Z13	X14	Y14	Z14	X15	Y15	Z15	X16	Y16	Z16	X17	Y17	Z17	X18	Y18	Z18	X19	Y19	Z19	X20	Y20	Z20	X21	Y21	Z21	X22	Y22	Z22	X23	Y23	Z23	X24	Y24	Z24	X25	Y25	Z25	X26	Y26	Z26	X27	Y27	Z27	X28	Y28	Z28	X29	Y29	Z29	X30	Y30	Z30	X31	Y31	Z31	X32	Y32	Z32	X33	Y33	Z33	X34	Y34	Z34	X35	Y35	Z35	X36	Y36	Z36	X37	Y37	Z37	X38	Y38	Z38	

192	1.910000	-167.351504	1026.877665	4.697665	17.801079	1003.680242	149.724892	43.224534	1008.779926	-93.592910	-94.902708	497.100546	166.688242	-103.343416	476.157986	53.334728	33.407551	721.507827	131.042624	1.344545	611.882245	89.220171	0.267092	607.224864	166.980116	-73.350221	497.936877	-150.475886	-85.992826	474.424441	-37.185166	53.371752	719.845695	-90.317820	23.384018	609.237846	-59.339668	25.431799	609.395462	-126.838567	-144.700841	96.027280	146.321414	-126.348732	100.857866	56.194657	-60.288634	340.332127	136.392481	-94.954764	229.574448	78.119100	-98.532466	223.627104	159.798985	-137.075122	89.238385	-152.371731	-126.317746	97.691694	-58.411660	-48.515776	337.478925	-122.829934	-73.840855	222.039188	-75.431392	-86.100108	222.908674	-155.936820	-204.167690	43.322628	113.077647	35.201966	59.434810	78.394728	21.952183	51.116201	161.022865	-201.967103	44.577606	-110.847302	39.982793	55.548022	-69.323235	36.796456	49.399897	-148.965836	30.365884	1408.591506	28.882289	-81.421487	1481.000947	222.031752	-69.638932	1510.692137	-177.858788	-131.696434	93.465039	-105.391695	-135.524786	98.442573	101.258035	-26.143771	930.179128	-67.995908	-44.440166	926.509059	107.111637	-79.671523	486.180659	-93.830526	-99.123062	486.629266	110.011485	
193	1.920000	-167.400658	1026.861346	4.698019	17.585840	1003.600016	149.781360	43.186033	1008.770200	-93.543887	-94.961668	497.101473	166.698076	-103.380861	476.157880	53.336719	33.328619	721.510898	131.079052	1.289211	611.888464	89.243373	0.214565	607.228029	167.017978	-73.350461	497.935828	-150.454470	-86.009742	474.419913	-37.173955	53.349220	719.846660	-90.281195	23.359774	609.231540	-59.302224	25.422416	609.396138	-126.794735	-144.700611	96.023050	146.322724	-126.350932	100.855990	56.195286	-60.321209	340.339209	136.404978	-94.974390	229.574979	78.123438	-98.558652	223.625421	159.801830	-137.075238	89.238310	-152.373954	-126.318959	97.691719	-58.410497	-48.516835	337.477196	-122.813566	-73.845131	222.036115	-75.423776	-86.097529	222.908354	-155.931631	-204.168107	43.320516	113.076692	35.201940	59.436314	78.394848	21.952031	51.116856	161.024082	-201.966003	44.576170	-110.848371	39.982312	55.547951	-69.320841	36.796295	49.400504	-148.964680	30.268018	1408.585710	28.914278	-81.552754	1480.983269	222.038516	-69.722915	1510.667904	-177.849457	-131.697098	93.465015	-105.392226	-135.525771	98.439520	101.259005	-26.197607	930.162253	-68.014074	-44.621025	926.441482	107.097209	-79.680102	486.177871	-93.814212	-99.171264	486.629677	110.017398	
194	1.930000	-167.448768	1026.846001	4.700021	17.322470	1003.490819	149.842606	43.147770	1008.761190	-93.495857	-95.019048	497.102116	166.708276	-103.417500	476.158460	53.337023	33.253140	721.513528	131.113135	1.237342	611.895850	89.265518	0.161988	607.229645	167.051891	-73.353015	497.934981	-150.435118	-86.028004	474.415688	-37.162459	53.324714	719.847415	-90.247380	23.335083	609.225580	-59.267370	25.409729	609.396745	-126.754039	-144.699441	96.018384	146.325147	-126.352957	100.854183	56.196349	-60.352140	340.346259	136.417272	-94.994258	229.574998	78.127184	-98.583968	223.623713	159.804675	-137.075790	89.238236	-152.375941	-126.320501	97.691456	-58.409420	-48.519961	337.476144	-122.798168	-73.850337	222.033277	-75.417238	-86.096739	222.908066	-155.926483	-204.168635	43.318423	113.075871	35.202174	59.437809	78.394904	21.951553	51.117386	161.025286	-201.964912	44.574784	-110.849362	39.981448	55.548098	-69.318401	36.796079	49.401260	-148.963855	30.171129	1408.581195	28.948539	-81.687171	1480.965188	222.048276	-69.807152	1510.644991	-177.838307	-131.698145	93.464846	-105.392681	-135.526199	98.436284	101.260748	-26.257149	930.144059	-68.054294	-44.842323	926.351238	107.064191	-79.690510	486.175335	-93.798788	-99.218274	486.630288	110.022650	
195	1.940000	-167.496052	1026.831476	4.703496	17.024591	1003.360080	149.906822	43.109671	1008.752655	-93.449194	-95.073382	497.102346	166.719080	-103.453036	476.159407	53.337034	33.182040	721.515898	131.144993	1.189235	611.904245	89.286881	0.109834	607.230080	167.081684	-73.357708	497.934259	-150.418224	-86.047703	474.411957	-37.150753	53.298390	719.848057	-90.215764	23.309884	609.220188	-59.235172	25.393982	609.397321	-126.716432	-144.697797	96.013320	146.328474	-126.354881	100.852573	56.197878	-60.381046	340.352854	136.429169	-95.013876	229.574512	78.130502	-98.607927	223.621753	159.807680	-137.076770	89.238134	-152.377615	-126.322379	97.690806	-58.408407	-48.525086	337.475765	-122.784145	-73.856267	222.030713	-75.411976	-86.097608	222.907801	-155.921497	-204.169285	43.316373	113.075308	35.202522	59.439249	78.395050	21.950705	51.117766	161.026563	-201.963927	44.573473	-110.850326	39.980251	55.548522	-69.316112	36.795676	49.402164	-148.963354	30.076419	1408.577696	28.985385	-81.824615	1480.945893	222.061089	-69.887604	1510.623780	-177.825760	-131.699575	93.464470	-105.393011	-135.526339	98.432947	101.263176	-26.320940	930.124893	-68.111154	-45.092760	926.244190	107.017137	-79.702705	486.173108	-93.784489	-99.263209	486.630877	110.028057	
